PathFileType	4	(X/Y/Z)	C:/Users/beibeiliu/ov580/test_trc\sequence.20_training_dense_right.trc
DataRate	CameraRate	NumFrames	NumMarkers	Units	OrigDataRate	OrigDataStartFrame	OrigNumFrames
120	120	8	19	mm	120	85	336
Frame#	Time	ThumbCMC			ThumbMCP			ThumbIP			ThumbTip			IndexMCP			IndexPIP			IndexTip			MiddleMCP			MiddlePIP			MiddleTip			RingMCP			RingPIP			RingTip			PinkyMCP			PinkyPIP			PinkyTip			BackHand1			BackHand2			BackHand3	
		X0	Y0	Z0	X1	Y1	Z1	X2	Y2	Z2	X3	Y3	Z3	X4	Y4	Z4	X5	Y5	Z5	X6	Y6	Z6	X7	Y7	Z7	X8	Y8	Z8	X9	Y9	Z9	X10	Y10	Z10	X11	Y11	Z11	X12	Y12	Z12	X13	Y13	Z13	X14	Y14	Z14	X15	Y15	Z15	X16	Y16	Z16	X17	Y17	Z17	X18	Y18	Z18	
84	0.7	255.623	16.3679	44.6029	232.08	37.0235	48.4163	210.876	50.8874	47.8467	192.059	53.6776	49.0236	209.662	25.9188	-4.8056	184.249	35.9636	-3.88504	166.317	49.7161	9.09915	195.916	5.79649	1.01023	166.964	19.241	1.55108	148.421	31.7689	20.6214	187.803	-6.75409	9.24547	164.398	0.751322	15.1525	154.632	21.0244	26.1097	188.676	-27.382	28.3916	167.447	-18.7799	32.6801	155.143	-1.64561	35.4346	231.55	-25.4238	21.3003	251.214	-36.3437	36.8058	250.852	-11.279	22.6505	
85	0.708333	255.864	14.9342	44.5977	237.135	38.8113	50.2051	215.979	49.9098	47.9389	198.513	61.7781	49.6461	213.663	25.8568	-2.03916	190.444	40.9989	-5.3036	171.562	56.5345	8.21078	194.666	12.7555	-1.31421	171.9	22.7004	0.51435	152.876	42.6428	19.7702	185.36	-5.53944	11.4251	168.523	10.3481	12.6117	154.016	26.8271	28.1559	182.831	-19.8634	27.5454	166.556	-10.5645	30.6839	154.79	10.4055	35.8223	231.118	-26.2681	25.0312	249.216	-37.7922	41.7812	253.026	-14.6987	26.5793	
86	0.716667	258.471	14.2373	45.1398	243.392	39.6553	52.0393	222.38	56.1324	47.6487	206.083	66.0039	49.8662	215.145	28.5702	-4.07784	197.081	42.8647	-5.22339	175.775	60.9288	9.11365	197.158	12.303	-0.692483	173.396	29.7312	0.120199	159.747	50.4966	19.2526	184.987	-0.232767	9.9664	169.184	19.4718	12.2901	161.213	38.8556	26.5907	183.298	-15.1028	26.8644	166.223	-1.08035	27.2112	156.172	15.5047	32.2073	226.328	-25.4803	25.363	245.311	-40.4712	39.5661	251.028	-14.6046	23.7198	
87	0.725	260.943	10.5167	47.9667	243.431	39.5771	49.6393	226.651	57.6426	48.4284	207.607	68.4654	47.7173	217.869	28.9239	-3.44505	201.561	46.5626	-5.71423	187.511	67.457	5.06071	198.753	18.1403	-2.11633	180.422	36.9479	-1.28568	164.446	53.4738	17.3074	188.309	4.60892	8.82836	169.885	22.9815	12.9917	164.825	42.3108	26.1506	181.202	-12.3116	27.4757	167.184	3.75728	27.843	156.414	22.9313	36.3191	225.628	-27.5712	25.9511	241.046	-37.6614	40.6786	251.414	-16.0759	28.0301	
88	0.733333	262.507	8.33032	49.6005	249.156	39.9365	52.6602	231.707	54.3126	49.4931	212.335	66.21	48.0541	220.976	29.4639	-1.80334	201.885	51.0766	-5.08383	191.151	72.1964	8.64547	198.56	18.0882	-1.0014	181.721	37.8207	-1.27046	169.957	60.7415	17.8048	190.586	10.7621	8.34249	173.444	30.509	12.8961	166.475	48.3469	31.2142	183.419	-7.8553	25.4486	165.36	8.65469	28.8022	158.822	30.7263	36.6472	223.761	-21.2328	24.6362	239.838	-36.0998	38.8825	251.222	-15.2848	26.1897	
89	0.741667	260.422	8.92163	46.6055	250.672	36.6226	53.1863	235.4	56.7836	49.6732	219.391	66.5626	50.2366	224.546	31.1938	-1.2139	211.143	52.4519	-5.43378	192.428	71.7595	9.05575	202.24	19.4335	0.770116	184.537	43.9635	-0.497486	175.601	64.7927	20.4011	191.268	12.132	8.6476	175.204	29.7822	13.6099	173.585	50.9498	28.6994	180.612	-6.17305	27.4688	168.537	10.3797	27.0478	160.68	30.0557	34.9504	222.375	-25.1599	27.5291	235.231	-38.837	40.7188	250.884	-14.8889	24.1531	
90	0.75	263.338	6.97979	49.1297	252.354	38.1862	52.2487	237.386	58.0693	48.7264	222.242	72.0848	50.5574	228.188	33.414	-3.12732	210.817	51.3702	-4.65085	200.316	72.8278	7.82385	204.52	19.1707	0.810592	187.784	44.7781	-1.0643	177.361	64.3785	17.1278	191.493	9.91739	10.6096	177.08	36.1472	14.4633	175.499	53.7337	32.5823	182.882	-3.37867	27.2886	166.974	13.7689	30.4078	165.281	33.2601	35.8557	222.03	-21.2913	25.0897	239.242	-39.1935	43.3952	251.516	-16.0711	24.7739	
91	0.758333	260.633	3.38802	48.8262	253.822	37.0091	51.9553	241.589	52.3135	52.5331	228.829	71.6201	51.2385	227.37	30.5026	-1.80947	214.225	56.0085	-4.69791	203.657	74.2668	9.07997	205.621	21.6975	-0.0461998	188.327	48.4446	-0.546221	180.914	67.6996	18.3202	193.024	13.3427	8.65935	176.839	37.4279	13.9134	179.505	54.5896	28.9075	180.817	-3.12363	28.4405	168.95	18.9892	29.3909	167.724	36.9748	35.7876	219.942	-22.5247	24.9271	234.023	-40.8854	42.9122	250.808	-18.9922	28.695	
